<svg xmlns="http://www.w3.org/2000/svg" viewBox="0 0 400 400" width="400" height="400">
  <defs><style>
    .ink-text { font-family: 'STKaiti', 'KaiTi', serif; fill: #1c1c1e; }
    .teal { fill: #2d5a6b; }
    .grey { fill: #efece4; stroke: #d8d4ce; stroke-width: 1; }
  </style></defs>
  <rect width="400" height="400" fill="#f7f5f0"/>
  <text x="40" y="60" class="ink-text" font-size="18" font-weight="700">📚 选年级</text>
  <g transform="translate(40,90)">
    <g class="grey" rx="8">
      <rect width="80" height="80"/>
      <text x="40" y="48" text-anchor="middle" class="ink-text" font-size="28" font-weight="700">1</text>
      <text x="40" y="68" text-anchor="middle" class="ink-text" font-size="11" fill="#5c5c6e">年级</text>
    </g>
    <g transform="translate(96,0)">
      <rect width="80" height="80" class="grey" rx="8"/>
      <text x="40" y="48" text-anchor="middle" class="ink-text" font-size="28" font-weight="700">2</text>
      <text x="40" y="68" text-anchor="middle" class="ink-text" font-size="11" fill="#5c5c6e">年级</text>
    </g>
    <g transform="translate(192,0)">
      <rect width="80" height="80" class="teal" rx="8"/>
      <text x="40" y="48" text-anchor="middle" class="ink-text" fill="#fff" font-size="28" font-weight="700">3</text>
      <text x="40" y="68" text-anchor="middle" class="ink-text" fill="#fff" font-size="11">已选</text>
    </g>
    <g transform="translate(0,96)">
      <rect width="80" height="80" class="grey" rx="8"/>
      <text x="40" y="48" text-anchor="middle" class="ink-text" font-size="28" font-weight="700">4</text>
      <text x="40" y="68" text-anchor="middle" class="ink-text" font-size="11" fill="#5c5c6e">年级</text>
    </g>
    <g transform="translate(96,96)">
      <rect width="80" height="80" class="grey" rx="8"/>
      <text x="40" y="48" text-anchor="middle" class="ink-text" font-size="28" font-weight="700">5</text>
      <text x="40" y="68" text-anchor="middle" class="ink-text" font-size="11" fill="#5c5c6e">年级</text>
    </g>
    <g transform="translate(192,96)">
      <rect width="80" height="80" class="grey" rx="8"/>
      <text x="40" y="48" text-anchor="middle" class="ink-text" font-size="28" font-weight="700">6</text>
      <text x="40" y="68" text-anchor="middle" class="ink-text" font-size="11" fill="#5c5c6e">年级</text>
    </g>
  </g>
  <text x="200" y="320" text-anchor="middle" class="ink-text" font-size="13" fill="#5c5c6e">1 年级免费 · 2-9 年级会员</text>
  <text x="200" y="350" text-anchor="middle" class="ink-text" font-size="18" font-weight="700">同步人教版 / 部编版</text>
</svg>
